<svg xmlns="http://www.w3.org/2000/svg" version="1.1" width="452.49999999999994mm" height="160.29999999999998mm" viewBox = " 0 0 1603.3477749999997 567.9925929999999" >
<!-- Front--> 
<g transform="translate(22.5000185, 22.5000185) " > 
<polygon style="stroke:#000000; fill:none; stroke-width:0.90000074" points="0, 0 35.96459649999999, 0 35.96459649999999, 10.62993 71.92919299999998, 10.62993 71.92919299999998, 0 93.18905299999999, 0 93.18905299999999, 10.62993 114.44891299999998, 10.62993 114.44891299999998, 0 135.70877299999998, 0 135.70877299999998, 10.62993 156.96863299999998, 10.62993 156.96863299999998, 0 178.228493, 0 178.228493, 10.62993 199.48835299999996, 10.62993 199.48835299999996, 0 220.74821299999996, 0 220.74821299999996, 10.62993 242.00807299999997, 10.62993 242.00807299999997, 0 263.26793299999997, 0 263.26793299999997, 10.62993 284.527793, 10.62993 284.527793, 0 305.787653, 0 305.787653, 10.62993 327.047513, 10.62993 327.047513, 0 348.307373, 0 348.307373, 10.62993 369.567233, 10.62993 369.567233, 0 390.827093, 0 390.827093, 10.62993 412.086953, 10.62993 412.086953, 0 433.346813, 0 433.346813, 10.62993 454.606673, 10.62993 454.606673, 0 475.866533, 0 475.866533, 10.62993 497.126393, 10.62993 497.126393, 0 518.386253, 0 518.386253, 10.62993 554.3508495, 10.62993 554.3508495, 0 590.315446, 0 590.315446, 31.0039625 579.685516, 31.0039625 579.685516, 62.007925 590.315446, 62.007925 590.315446, 83.267785 579.685516, 83.267785 579.685516, 114.2717475 590.315446, 114.2717475 590.315446, 145.27571 554.3508495, 145.27571 554.3508495, 134.64578 518.386253, 134.64578 518.386253, 145.27571 497.126393, 145.27571 497.126393, 134.64578 475.866533, 134.64578 475.866533, 145.27571 454.606673, 145.27571 454.606673, 134.64578 433.346813, 134.64578 433.346813, 145.27571 412.086953, 145.27571 412.086953, 134.64578 390.827093, 134.64578 390.827093, 145.27571 369.567233, 145.27571 369.567233, 134.64578 348.307373, 134.64578 348.307373, 145.27571 327.047513, 145.27571 327.047513, 134.64578 305.787653, 134.64578 305.787653, 145.27571 284.527793, 145.27571 284.527793, 134.64578 263.26793299999997, 134.64578 263.26793299999997, 145.27571 242.00807299999997, 145.27571 242.00807299999997, 134.64578 220.74821299999996, 134.64578 220.74821299999996, 145.27571 199.48835299999996, 145.27571 199.48835299999996, 134.64578 178.228493, 134.64578 178.228493, 145.27571 156.96863299999998, 145.27571 156.96863299999998, 134.64578 135.70877299999998, 134.64578 135.70877299999998, 145.27571 114.44891299999998, 145.27571 114.44891299999998, 134.64578 93.18905299999999, 134.64578 93.18905299999999, 145.27571 71.92919299999998, 145.27571 71.92919299999998, 134.64578 35.96459649999999, 134.64578 35.96459649999999, 145.27571 0, 145.27571 0, 114.2717475 10.62993, 114.2717475 10.62993, 83.267785 0, 83.267785 0, 62.007925 10.62993, 62.007925 10.62993, 31.0039625 0, 31.0039625 "/> 
</g>
<!-- Back--> 
<g transform="translate(612.8154645, 22.5000185) " > 
<polygon style="stroke:#000000; fill:none; stroke-width:0.90000074" points="0, 0 35.96459649999999, 0 35.96459649999999, 10.62993 71.92919299999998, 10.62993 71.92919299999998, 0 93.18905299999999, 0 93.18905299999999, 10.62993 114.44891299999998, 10.62993 114.44891299999998, 0 135.70877299999998, 0 135.70877299999998, 10.62993 156.96863299999998, 10.62993 156.96863299999998, 0 178.228493, 0 178.228493, 10.62993 199.48835299999996, 10.62993 199.48835299999996, 0 220.74821299999996, 0 220.74821299999996, 10.62993 242.00807299999997, 10.62993 242.00807299999997, 0 263.26793299999997, 0 263.26793299999997, 10.62993 284.527793, 10.62993 284.527793, 0 305.787653, 0 305.787653, 10.62993 327.047513, 10.62993 327.047513, 0 348.307373, 0 348.307373, 10.62993 369.567233, 10.62993 369.567233, 0 390.827093, 0 390.827093, 10.62993 412.086953, 10.62993 412.086953, 0 433.346813, 0 433.346813, 10.62993 454.606673, 10.62993 454.606673, 0 475.866533, 0 475.866533, 10.62993 497.126393, 10.62993 497.126393, 0 518.386253, 0 518.386253, 10.62993 554.3508495, 10.62993 554.3508495, 0 590.315446, 0 590.315446, 31.0039625 579.685516, 31.0039625 579.685516, 62.007925 590.315446, 62.007925 590.315446, 83.267785 579.685516, 83.267785 579.685516, 114.2717475 590.315446, 114.2717475 590.315446, 145.27571 554.3508495, 145.27571 554.3508495, 134.64578 518.386253, 134.64578 518.386253, 145.27571 497.126393, 145.27571 497.126393, 134.64578 475.866533, 134.64578 475.866533, 145.27571 454.606673, 145.27571 454.606673, 134.64578 433.346813, 134.64578 433.346813, 145.27571 412.086953, 145.27571 412.086953, 134.64578 390.827093, 134.64578 390.827093, 145.27571 369.567233, 145.27571 369.567233, 134.64578 348.307373, 134.64578 348.307373, 145.27571 327.047513, 145.27571 327.047513, 134.64578 305.787653, 134.64578 305.787653, 145.27571 284.527793, 145.27571 284.527793, 134.64578 263.26793299999997, 134.64578 263.26793299999997, 145.27571 242.00807299999997, 145.27571 242.00807299999997, 134.64578 220.74821299999996, 134.64578 220.74821299999996, 145.27571 199.48835299999996, 145.27571 199.48835299999996, 134.64578 178.228493, 134.64578 178.228493, 145.27571 156.96863299999998, 145.27571 156.96863299999998, 134.64578 135.70877299999998, 134.64578 135.70877299999998, 145.27571 114.44891299999998, 145.27571 114.44891299999998, 134.64578 93.18905299999999, 134.64578 93.18905299999999, 145.27571 71.92919299999998, 145.27571 71.92919299999998, 134.64578 35.96459649999999, 134.64578 35.96459649999999, 145.27571 0, 145.27571 0, 114.2717475 10.62993, 114.2717475 10.62993, 83.267785 0, 83.267785 0, 62.007925 10.62993, 62.007925 10.62993, 31.0039625 0, 31.0039625 "/> 
</g>
<!-- Left--> 
<g transform="translate(1203.1309104999998, 22.5000185) " > 
<polygon style="stroke:#000000; fill:none; stroke-width:0.90000074" points="10.62993, 0 35.96459649999999, 0 35.96459649999999, 10.62993 71.92919299999998, 10.62993 71.92919299999998, 0 93.18905299999999, 0 93.18905299999999, 10.62993 114.44891299999998, 10.62993 114.44891299999998, 0 135.70877299999998, 0 135.70877299999998, 10.62993 156.96863299999998, 10.62993 156.96863299999998, 0 178.228493, 0 178.228493, 10.62993 199.48835299999996, 10.62993 199.48835299999996, 0 220.74821299999996, 0 220.74821299999996, 10.62993 242.00807299999997, 10.62993 242.00807299999997, 0 263.26793299999997, 0 263.26793299999997, 10.62993 284.527793, 10.62993 284.527793, 0 305.787653, 0 305.787653, 10.62993 341.75224949999995, 10.62993 341.75224949999995, 0 367.086916, 0 367.086916, 31.0039625 377.716846, 31.0039625 377.716846, 62.007925 367.086916, 62.007925 367.086916, 83.267785 377.716846, 83.267785 377.716846, 114.2717475 367.086916, 114.2717475 367.086916, 145.27571 341.75224949999995, 145.27571 341.75224949999995, 134.64578 305.787653, 134.64578 305.787653, 145.27571 284.527793, 145.27571 284.527793, 134.64578 263.26793299999997, 134.64578 263.26793299999997, 145.27571 242.00807299999997, 145.27571 242.00807299999997, 134.64578 220.74821299999996, 134.64578 220.74821299999996, 145.27571 199.48835299999996, 145.27571 199.48835299999996, 134.64578 178.228493, 134.64578 178.228493, 145.27571 156.96863299999998, 145.27571 156.96863299999998, 134.64578 135.70877299999998, 134.64578 135.70877299999998, 145.27571 114.44891299999998, 145.27571 114.44891299999998, 134.64578 93.18905299999999, 134.64578 93.18905299999999, 145.27571 71.92919299999998, 145.27571 71.92919299999998, 134.64578 35.96459649999999, 134.64578 35.96459649999999, 145.27571 10.62993, 145.27571 10.62993, 114.2717475 0, 114.2717475 0, 83.267785 10.62993, 83.267785 10.62993, 62.007925 0, 62.007925 0, 31.0039625 10.62993, 31.0039625 "/> 
</g>
<!-- Right--> 
<g transform="translate(1203.1309104999998, 167.7757285) " > 
<polygon style="stroke:#000000; fill:none; stroke-width:0.90000074" points="10.62993, 0 35.96459649999999, 0 35.96459649999999, 10.62993 71.92919299999998, 10.62993 71.92919299999998, 0 93.18905299999999, 0 93.18905299999999, 10.62993 114.44891299999998, 10.62993 114.44891299999998, 0 135.70877299999998, 0 135.70877299999998, 10.62993 156.96863299999998, 10.62993 156.96863299999998, 0 178.228493, 0 178.228493, 10.62993 199.48835299999996, 10.62993 199.48835299999996, 0 220.74821299999996, 0 220.74821299999996, 10.62993 242.00807299999997, 10.62993 242.00807299999997, 0 263.26793299999997, 0 263.26793299999997, 10.62993 284.527793, 10.62993 284.527793, 0 305.787653, 0 305.787653, 10.62993 341.75224949999995, 10.62993 341.75224949999995, 0 367.086916, 0 367.086916, 31.0039625 377.716846, 31.0039625 377.716846, 62.007925 367.086916, 62.007925 367.086916, 83.267785 377.716846, 83.267785 377.716846, 114.2717475 367.086916, 114.2717475 367.086916, 145.27571 341.75224949999995, 145.27571 341.75224949999995, 134.64578 305.787653, 134.64578 305.787653, 145.27571 284.527793, 145.27571 284.527793, 134.64578 263.26793299999997, 134.64578 263.26793299999997, 145.27571 242.00807299999997, 145.27571 242.00807299999997, 134.64578 220.74821299999996, 134.64578 220.74821299999996, 145.27571 199.48835299999996, 145.27571 199.48835299999996, 134.64578 178.228493, 134.64578 178.228493, 145.27571 156.96863299999998, 145.27571 156.96863299999998, 134.64578 135.70877299999998, 134.64578 135.70877299999998, 145.27571 114.44891299999998, 145.27571 114.44891299999998, 134.64578 93.18905299999999, 134.64578 93.18905299999999, 145.27571 71.92919299999998, 145.27571 71.92919299999998, 134.64578 35.96459649999999, 134.64578 35.96459649999999, 145.27571 10.62993, 145.27571 10.62993, 114.2717475 0, 114.2717475 0, 83.267785 10.62993, 83.267785 10.62993, 62.007925 0, 62.007925 0, 31.0039625 10.62993, 31.0039625 "/> 
</g>
<!-- Top--> 
<g transform="translate(22.5000185, 167.7757285) " > 
<polygon style="stroke:#000000; fill:none; stroke-width:0.90000074" points="10.62993, 10.62993 35.96459649999999, 10.62993 35.96459649999999, 0 71.92919299999998, 0 71.92919299999998, 10.62993 93.18905299999999, 10.62993 93.18905299999999, 0 114.44891299999998, 0 114.44891299999998, 10.62993 135.70877299999998, 10.62993 135.70877299999998, 0 156.96863299999998, 0 156.96863299999998, 10.62993 178.228493, 10.62993 178.228493, 0 199.48835299999996, 0 199.48835299999996, 10.62993 220.74821299999996, 10.62993 220.74821299999996, 0 242.00807299999997, 0 242.00807299999997, 10.62993 263.26793299999997, 10.62993 263.26793299999997, 0 284.527793, 0 284.527793, 10.62993 305.787653, 10.62993 305.787653, 0 327.047513, 0 327.047513, 10.62993 348.307373, 10.62993 348.307373, 0 369.567233, 0 369.567233, 10.62993 390.827093, 10.62993 390.827093, 0 412.086953, 0 412.086953, 10.62993 433.346813, 10.62993 433.346813, 0 454.606673, 0 454.606673, 10.62993 475.866533, 10.62993 475.866533, 0 497.126393, 0 497.126393, 10.62993 518.386253, 10.62993 518.386253, 0 554.3508495, 0 554.3508495, 10.62993 579.685516, 10.62993 579.685516, 35.96459649999999 590.315446, 35.96459649999999 590.315446, 71.92919299999998 579.685516, 71.92919299999998 579.685516, 93.18905299999999 590.315446, 93.18905299999999 590.315446, 114.44891299999998 579.685516, 114.44891299999998 579.685516, 135.70877299999998 590.315446, 135.70877299999998 590.315446, 156.96863299999998 579.685516, 156.96863299999998 579.685516, 178.228493 590.315446, 178.228493 590.315446, 199.48835299999996 579.685516, 199.48835299999996 579.685516, 220.74821299999996 590.315446, 220.74821299999996 590.315446, 242.00807299999997 579.685516, 242.00807299999997 579.685516, 263.26793299999997 590.315446, 263.26793299999997 590.315446, 284.527793 579.685516, 284.527793 579.685516, 305.787653 590.315446, 305.787653 590.315446, 341.75224949999995 579.685516, 341.75224949999995 579.685516, 367.086916 554.3508495, 367.086916 554.3508495, 377.716846 518.386253, 377.716846 518.386253, 367.086916 497.126393, 367.086916 497.126393, 377.716846 475.866533, 377.716846 475.866533, 367.086916 454.606673, 367.086916 454.606673, 377.716846 433.346813, 377.716846 433.346813, 367.086916 412.086953, 367.086916 412.086953, 377.716846 390.827093, 377.716846 390.827093, 367.086916 369.567233, 367.086916 369.567233, 377.716846 348.307373, 377.716846 348.307373, 367.086916 327.047513, 367.086916 327.047513, 377.716846 305.787653, 377.716846 305.787653, 367.086916 284.527793, 367.086916 284.527793, 377.716846 263.26793299999997, 377.716846 263.26793299999997, 367.086916 242.00807299999997, 367.086916 242.00807299999997, 377.716846 220.74821299999996, 377.716846 220.74821299999996, 367.086916 199.48835299999996, 367.086916 199.48835299999996, 377.716846 178.228493, 377.716846 178.228493, 367.086916 156.96863299999998, 367.086916 156.96863299999998, 377.716846 135.70877299999998, 377.716846 135.70877299999998, 367.086916 114.44891299999998, 367.086916 114.44891299999998, 377.716846 93.18905299999999, 377.716846 93.18905299999999, 367.086916 71.92919299999998, 367.086916 71.92919299999998, 377.716846 35.96459649999999, 377.716846 35.96459649999999, 367.086916 10.62993, 367.086916 10.62993, 341.75224949999995 0, 341.75224949999995 0, 305.787653 10.62993, 305.787653 10.62993, 284.527793 0, 284.527793 0, 263.26793299999997 10.62993, 263.26793299999997 10.62993, 242.00807299999997 0, 242.00807299999997 0, 220.74821299999996 10.62993, 220.74821299999996 10.62993, 199.48835299999996 0, 199.48835299999996 0, 178.228493 10.62993, 178.228493 10.62993, 156.96863299999998 0, 156.96863299999998 0, 135.70877299999998 10.62993, 135.70877299999998 10.62993, 114.44891299999998 0, 114.44891299999998 0, 93.18905299999999 10.62993, 93.18905299999999 10.62993, 71.92919299999998 0, 71.92919299999998 0, 35.96459649999999 10.62993, 35.96459649999999 "/> 
</g>
<!-- Bottom--> 
<g transform="translate(612.8154645, 167.7757285) " > 
<polygon style="stroke:#000000; fill:none; stroke-width:0.90000074" points="10.62993, 10.62993 35.96459649999999, 10.62993 35.96459649999999, 0 71.92919299999998, 0 71.92919299999998, 10.62993 93.18905299999999, 10.62993 93.18905299999999, 0 114.44891299999998, 0 114.44891299999998, 10.62993 135.70877299999998, 10.62993 135.70877299999998, 0 156.96863299999998, 0 156.96863299999998, 10.62993 178.228493, 10.62993 178.228493, 0 199.48835299999996, 0 199.48835299999996, 10.62993 220.74821299999996, 10.62993 220.74821299999996, 0 242.00807299999997, 0 242.00807299999997, 10.62993 263.26793299999997, 10.62993 263.26793299999997, 0 284.527793, 0 284.527793, 10.62993 305.787653, 10.62993 305.787653, 0 327.047513, 0 327.047513, 10.62993 348.307373, 10.62993 348.307373, 0 369.567233, 0 369.567233, 10.62993 390.827093, 10.62993 390.827093, 0 412.086953, 0 412.086953, 10.62993 433.346813, 10.62993 433.346813, 0 454.606673, 0 454.606673, 10.62993 475.866533, 10.62993 475.866533, 0 497.126393, 0 497.126393, 10.62993 518.386253, 10.62993 518.386253, 0 554.3508495, 0 554.3508495, 10.62993 579.685516, 10.62993 579.685516, 35.96459649999999 590.315446, 35.96459649999999 590.315446, 71.92919299999998 579.685516, 71.92919299999998 579.685516, 93.18905299999999 590.315446, 93.18905299999999 590.315446, 114.44891299999998 579.685516, 114.44891299999998 579.685516, 135.70877299999998 590.315446, 135.70877299999998 590.315446, 156.96863299999998 579.685516, 156.96863299999998 579.685516, 178.228493 590.315446, 178.228493 590.315446, 199.48835299999996 579.685516, 199.48835299999996 579.685516, 220.74821299999996 590.315446, 220.74821299999996 590.315446, 242.00807299999997 579.685516, 242.00807299999997 579.685516, 263.26793299999997 590.315446, 263.26793299999997 590.315446, 284.527793 579.685516, 284.527793 579.685516, 305.787653 590.315446, 305.787653 590.315446, 341.75224949999995 579.685516, 341.75224949999995 579.685516, 367.086916 554.3508495, 367.086916 554.3508495, 377.716846 518.386253, 377.716846 518.386253, 367.086916 497.126393, 367.086916 497.126393, 377.716846 475.866533, 377.716846 475.866533, 367.086916 454.606673, 367.086916 454.606673, 377.716846 433.346813, 377.716846 433.346813, 367.086916 412.086953, 367.086916 412.086953, 377.716846 390.827093, 377.716846 390.827093, 367.086916 369.567233, 367.086916 369.567233, 377.716846 348.307373, 377.716846 348.307373, 367.086916 327.047513, 367.086916 327.047513, 377.716846 305.787653, 377.716846 305.787653, 367.086916 284.527793, 367.086916 284.527793, 377.716846 263.26793299999997, 377.716846 263.26793299999997, 367.086916 242.00807299999997, 367.086916 242.00807299999997, 377.716846 220.74821299999996, 377.716846 220.74821299999996, 367.086916 199.48835299999996, 367.086916 199.48835299999996, 377.716846 178.228493, 377.716846 178.228493, 367.086916 156.96863299999998, 367.086916 156.96863299999998, 377.716846 135.70877299999998, 377.716846 135.70877299999998, 367.086916 114.44891299999998, 367.086916 114.44891299999998, 377.716846 93.18905299999999, 377.716846 93.18905299999999, 367.086916 71.92919299999998, 367.086916 71.92919299999998, 377.716846 35.96459649999999, 377.716846 35.96459649999999, 367.086916 10.62993, 367.086916 10.62993, 341.75224949999995 0, 341.75224949999995 0, 305.787653 10.62993, 305.787653 10.62993, 284.527793 0, 284.527793 0, 263.26793299999997 10.62993, 263.26793299999997 10.62993, 242.00807299999997 0, 242.00807299999997 0, 220.74821299999996 10.62993, 220.74821299999996 10.62993, 199.48835299999996 0, 199.48835299999996 0, 178.228493 10.62993, 178.228493 10.62993, 156.96863299999998 0, 156.96863299999998 0, 135.70877299999998 10.62993, 135.70877299999998 10.62993, 114.44891299999998 0, 114.44891299999998 0, 93.18905299999999 10.62993, 93.18905299999999 10.62993, 71.92919299999998 0, 71.92919299999998 0, 35.96459649999999 10.62993, 35.96459649999999 "/> 
</g></svg>